<svg xmlns="http://www.w3.org/2000/svg" viewBox="0 0 220 240" role="img" aria-label="8‘t Đ">
  <defs>
    <linearGradient id="tigerBase" x1="0" x2="0" y1="0" y2="1">
      <stop offset="0%" stop-color="#f0b34a" />
      <stop offset="100%" stop-color="#ce8920" />
    </linearGradient>
    <linearGradient id="tigerFur" x1="0" x2="0" y1="0" y2="1">
      <stop offset="0%" stop-color="#ff9d24" />
      <stop offset="100%" stop-color="#ee7414" />
    </linearGradient>
    <linearGradient id="tigerLight" x1="0" x2="0" y1="0" y2="1">
      <stop offset="0%" stop-color="#fff0d6" />
      <stop offset="100%" stop-color="#f6d7a3" />
    </linearGradient>
  </defs>

  <path d="M60 198h100a18 18 0 0 1 18 18v10H42v-10a18 18 0 0 1 18-18z" fill="url(#tigerBase)" stroke="#a96a16" stroke-width="6"/>
  <ellipse cx="82" cy="66" rx="22" ry="22" fill="#f0b34a" stroke="#7a3e13" stroke-width="6"/>
  <ellipse cx="138" cy="66" rx="22" ry="22" fill="#f0b34a" stroke="#7a3e13" stroke-width="6"/>
  <ellipse cx="82" cy="66" rx="11" ry="11" fill="#ffe4c0"/>
  <ellipse cx="138" cy="66" rx="11" ry="11" fill="#ffe4c0"/>
  <path d="M110 34c22 0 42 7 55 20 14 13 21 31 21 52 0 22-7 41-21 54-13 13-31 19-55 21-24-2-42-8-55-21-14-13-21-32-21-54 0-21 7-39 21-52 13-13 33-20 55-20z" fill="url(#tigerFur)" stroke="#7a3e13" stroke-width="8"/>
  <path d="M69 121c-12 7-21 18-24 31 11 10 23 15 36 15" fill="url(#tigerLight)" stroke="#7a3e13" stroke-width="6"/>
  <path d="M151 121c12 7 21 18 24 31-11 10-23 15-36 15" fill="url(#tigerLight)" stroke="#7a3e13" stroke-width="6"/>
  <path d="M110 58c18 0 33 6 43 17 10 11 16 25 16 43 0 18-6 33-16 44-10 10-25 16-43 16s-33-6-43-16c-10-11-16-26-16-44 0-18 6-32 16-43 10-11 25-17 43-17z" fill="url(#tigerFur)"/>
  <path d="M76 80c6-9 13-15 21-19" fill="none" stroke="#5b2810" stroke-width="7" stroke-linecap="round"/>
  <path d="M144 80c-6-9-13-15-21-19" fill="none" stroke="#5b2810" stroke-width="7" stroke-linecap="round"/>
  <path d="M99 54l11-11 11 11" fill="none" stroke="#5b2810" stroke-width="8" stroke-linecap="round" stroke-linejoin="round"/>
  <path d="M74 111c5-10 11-16 18-18" fill="none" stroke="#5b2810" stroke-width="7" stroke-linecap="round"/>
  <path d="M146 111c-5-10-11-16-18-18" fill="none" stroke="#5b2810" stroke-width="7" stroke-linecap="round"/>
  <path d="M80 122c10-8 20-12 30-12s20 4 30 12" fill="none" stroke="#fff0d6" stroke-width="7" stroke-linecap="round"/>
  <path d="M75 129c6-8 14-12 21-12" fill="none" stroke="#5b2810" stroke-width="6" stroke-linecap="round"/>
  <path d="M145 129c-6-8-14-12-21-12" fill="none" stroke="#5b2810" stroke-width="6" stroke-linecap="round"/>
  <path d="M83 135c0-9 12-16 27-16s27 7 27 16v15c0 7-5 13-12 16l-15 5-15-5c-7-3-12-9-12-16z" fill="url(#tigerLight)" stroke="#7a3e13" stroke-width="5"/>
  <path d="M96 128l14-8 14 8-4 11h-20z" fill="#8a4420"/>
  <path d="M89 145h-10" stroke="#7a3e13" stroke-width="4" stroke-linecap="round"/>
  <path d="M87 153H75" stroke="#7a3e13" stroke-width="4" stroke-linecap="round"/>
  <path d="M131 145h10" stroke="#7a3e13" stroke-width="4" stroke-linecap="round"/>
  <path d="M133 153h12" stroke="#7a3e13" stroke-width="4" stroke-linecap="round"/>
  <path d="M110 170c-10 0-18 6-24 15" fill="none" stroke="#7a3e13" stroke-width="5" stroke-linecap="round"/>
  <path d="M110 170c10 0 18 6 24 15" fill="none" stroke="#7a3e13" stroke-width="5" stroke-linecap="round"/>
</svg>
